<svg xmlns="http://www.w3.org/2000/svg" xmlns:xlink="http://www.w3.org/1999/xlink" width="500" zoomAndPan="magnify" viewBox="0 0 375 374.999991" height="500" preserveAspectRatio="xMidYMid meet" version="1.0"><defs><g/></defs><g fill="#000000" fill-opacity="1"><g transform="translate(15.461065, 208.513117)"><g><path d="M 89.203125 -83.0625 C 89.503906 -83.0625 89.757812 -82.953125 89.96875 -82.734375 C 90.1875 -82.523438 90.296875 -82.265625 90.296875 -81.953125 L 90.296875 0 L 82.140625 0 C 80.859375 0 79.601562 -0.0976562 78.375 -0.296875 C 76.207031 -0.597656 74.117188 -1.132812 72.109375 -1.90625 C 72.078125 -1.90625 72.0625 -1.90625 72.0625 -1.90625 C 64.332031 -5 58.941406 -10.582031 55.890625 -18.65625 L 34.46875 -64.8125 L 34.46875 -1.15625 C 34.46875 -0.84375 34.359375 -0.570312 34.140625 -0.34375 C 33.929688 -0.113281 33.671875 0 33.359375 0 L 17.375 0 C 17.0625 0 16.789062 -0.113281 16.5625 -0.34375 C 16.332031 -0.570312 16.21875 -0.84375 16.21875 -1.15625 L 16.21875 -66.375 C 16.21875 -69.46875 15.675781 -72.460938 14.59375 -75.359375 C 13.507812 -78.171875 11.925781 -80.738281 9.84375 -83.0625 L 45.296875 -83.0625 L 72.0625 -27.625 L 72.0625 -81.953125 C 72.0625 -82.265625 72.164062 -82.523438 72.375 -82.734375 C 72.582031 -82.953125 72.84375 -83.0625 73.15625 -83.0625 Z M 89.203125 -83.0625 "/></g></g></g><g fill="#000000" fill-opacity="1"><g transform="translate(82.024203, 208.513117)"><g><path d="M 83 -83.0625 C 83.3125 -83.0625 83.570312 -82.953125 83.78125 -82.734375 C 84 -82.523438 84.109375 -82.265625 84.109375 -81.953125 L 84.109375 -65.96875 C 84.109375 -65.664062 84 -65.40625 83.78125 -65.1875 C 83.570312 -64.976562 83.3125 -64.875 83 -64.875 L 34.46875 -64.875 L 34.46875 -50.6875 L 67.890625 -50.6875 C 68.078125 -50.6875 68.238281 -50.617188 68.375 -50.484375 C 68.507812 -50.347656 68.578125 -50.179688 68.578125 -49.984375 L 68.578125 -33.125 C 68.578125 -32.9375 68.507812 -32.773438 68.375 -32.640625 C 68.238281 -32.503906 68.078125 -32.4375 67.890625 -32.4375 L 34.46875 -32.4375 L 34.46875 -18.25 L 83 -18.25 C 83.3125 -18.25 83.570312 -18.140625 83.78125 -17.921875 C 84 -17.710938 84.109375 -17.453125 84.109375 -17.140625 L 84.109375 -1.15625 C 84.109375 -0.84375 84 -0.570312 83.78125 -0.34375 C 83.570312 -0.113281 83.3125 0 83 0 L 16.21875 0 L 16.21875 -66.375 C 16.21875 -69.46875 15.675781 -72.460938 14.59375 -75.359375 C 13.507812 -78.171875 11.925781 -80.738281 9.84375 -83.0625 Z M 83 -83.0625 "/></g></g></g><g fill="#000000" fill-opacity="1"><g transform="translate(142.390348, 208.513117)"><g><path d="M 71.875 -83.0625 L 92.84375 -83.0625 L 64.40625 -38.0625 L 92.84375 0 L 71.53125 0 L 51.375 -27.171875 L 48.59375 -30.875 L 31.21875 0 L 9.84375 0 L 37.59375 -45.765625 L 38 -45.125 L 9.84375 -83.0625 L 30.8125 -83.0625 L 51.375 -55.609375 L 53.515625 -52.65625 Z M 71.875 -83.0625 "/></g></g></g><g fill="#000000" fill-opacity="1"><g transform="translate(211.501774, 208.513117)"><g><path d="M 92.265625 -83.0625 C 92.421875 -83.0625 92.566406 -83.003906 92.703125 -82.890625 C 92.835938 -82.773438 92.90625 -82.617188 92.90625 -82.421875 L 92.90625 -65.515625 C 92.90625 -65.316406 92.835938 -65.160156 92.703125 -65.046875 C 92.566406 -64.929688 92.421875 -64.875 92.265625 -64.875 L 60.46875 -64.875 L 60.46875 -1.328125 C 60.46875 -1.023438 60.359375 -0.773438 60.140625 -0.578125 C 59.929688 -0.390625 59.691406 -0.296875 59.421875 -0.296875 L 43.265625 -0.296875 C 42.992188 -0.296875 42.75 -0.390625 42.53125 -0.578125 C 42.320312 -0.773438 42.21875 -1.023438 42.21875 -1.328125 L 42.21875 -64.875 L 10.484375 -64.875 C 10.285156 -64.875 10.128906 -64.929688 10.015625 -65.046875 C 9.898438 -65.160156 9.84375 -65.316406 9.84375 -65.515625 L 9.84375 -82.421875 C 9.84375 -82.617188 9.898438 -82.773438 10.015625 -82.890625 C 10.128906 -83.003906 10.285156 -83.0625 10.484375 -83.0625 Z M 92.265625 -83.0625 "/></g></g></g><g fill="#000000" fill-opacity="1"><g transform="translate(157.593958, 259.147632)"><g><path d="M 48.78125 -38.40625 L 48.75 -38.359375 L 54.265625 -38.359375 L 54.265625 -0.453125 C 54.265625 -0.304688 54.210938 -0.179688 54.109375 -0.078125 C 54.015625 0.0234375 53.898438 0.078125 53.765625 0.078125 L 46.375 0.078125 C 46.226562 0.078125 46.101562 0.0234375 46 -0.078125 C 45.90625 -0.179688 45.859375 -0.304688 45.859375 -0.453125 L 45.859375 -30.078125 L 38.625 -9.421875 C 37.570312 -6.316406 37.484375 -3.175781 38.359375 0 L 35.546875 0 C 32.816406 0 30.347656 -0.78125 28.140625 -2.34375 C 25.929688 -3.90625 24.351562 -6 23.40625 -8.625 L 15.9375 -30 L 15.9375 -0.53125 C 15.9375 -0.394531 15.882812 -0.269531 15.78125 -0.15625 C 15.6875 -0.0507812 15.566406 0 15.421875 0 L 8.015625 0 C 7.867188 0 7.742188 -0.0507812 7.640625 -0.15625 C 7.546875 -0.269531 7.5 -0.394531 7.5 -0.53125 L 7.5 -30.703125 C 7.5 -32.128906 7.25 -33.507812 6.75 -34.84375 C 6.226562 -36.15625 5.492188 -37.34375 4.546875 -38.40625 L 21.90625 -38.40625 L 30.890625 -12.78125 L 39.859375 -38.40625 Z M 48.78125 -38.40625 "/></g></g></g><g fill="#000000" fill-opacity="1"><g transform="translate(208.110827, 259.147632)"><g><path d="M 38.390625 -38.40625 C 38.523438 -38.40625 38.640625 -38.359375 38.734375 -38.265625 C 38.835938 -38.171875 38.890625 -38.050781 38.890625 -37.90625 L 38.890625 -30.515625 C 38.890625 -30.367188 38.835938 -30.242188 38.734375 -30.140625 C 38.640625 -30.046875 38.523438 -30 38.390625 -30 L 15.9375 -30 L 15.9375 -23.4375 L 31.390625 -23.4375 C 31.484375 -23.4375 31.5625 -23.40625 31.625 -23.34375 C 31.6875 -23.28125 31.71875 -23.203125 31.71875 -23.109375 L 31.71875 -15.328125 C 31.71875 -15.234375 31.6875 -15.15625 31.625 -15.09375 C 31.5625 -15.03125 31.484375 -15 31.390625 -15 L 15.9375 -15 L 15.9375 -8.4375 L 38.390625 -8.4375 C 38.523438 -8.4375 38.640625 -8.382812 38.734375 -8.28125 C 38.835938 -8.1875 38.890625 -8.066406 38.890625 -7.921875 L 38.890625 -0.53125 C 38.890625 -0.394531 38.835938 -0.269531 38.734375 -0.15625 C 38.640625 -0.0507812 38.523438 0 38.390625 0 L 7.5 0 L 7.5 -30.703125 C 7.5 -32.128906 7.25 -33.507812 6.75 -34.84375 C 6.25 -36.15625 5.515625 -37.34375 4.546875 -38.40625 Z M 38.390625 -38.40625 "/></g></g></g><g fill="#000000" fill-opacity="1"><g transform="translate(243.258545, 259.147632)"><g><path d="M 34.28125 -38.40625 C 36.425781 -38.40625 38.378906 -37.882812 40.140625 -36.84375 C 41.898438 -35.800781 43.296875 -34.410156 44.328125 -32.671875 C 45.367188 -30.929688 45.894531 -28.976562 45.90625 -26.8125 C 45.90625 -21.757812 45.90625 -16.695312 45.90625 -11.625 C 45.894531 -9.46875 45.367188 -7.515625 44.328125 -5.765625 C 43.296875 -4.015625 41.898438 -2.613281 40.140625 -1.5625 C 38.378906 -0.519531 36.425781 0 34.28125 0 L 7.5 0 L 7.5 -30.703125 C 7.5 -32.128906 7.25 -33.507812 6.75 -34.84375 C 6.226562 -36.15625 5.492188 -37.34375 4.546875 -38.40625 Z M 37.5 -12.53125 L 37.5 -25.90625 C 37.46875 -27.0625 37.054688 -28.03125 36.265625 -28.8125 C 35.484375 -29.601562 34.53125 -30 33.40625 -30 L 15.9375 -30 L 15.9375 -8.4375 L 33.40625 -8.4375 C 34.53125 -8.4375 35.484375 -8.828125 36.265625 -9.609375 C 37.054688 -10.398438 37.46875 -11.375 37.5 -12.53125 Z M 37.5 -12.53125 "/></g></g></g><g fill="#000000" fill-opacity="1"><g transform="translate(285.42145, 259.147632)"><g><path d="M 28.953125 -31.34375 L 33.25 -38.40625 L 42.9375 -38.40625 L 29.65625 -17.8125 L 29.59375 -17.859375 L 28.953125 -16.875 L 28.953125 -0.78125 C 28.953125 -0.5625 28.878906 -0.375 28.734375 -0.21875 C 28.597656 -0.0703125 28.421875 0 28.203125 0 L 21.328125 0 C 21.109375 0 20.921875 -0.0703125 20.765625 -0.21875 C 20.617188 -0.375 20.546875 -0.5625 20.546875 -0.78125 L 20.546875 -16.875 L 18.859375 -19.15625 L 4.546875 -38.40625 L 14.25 -38.40625 L 20.546875 -30 L 23.734375 -25.71875 L 24.75 -24.34375 Z M 28.953125 -31.34375 "/></g></g></g><g fill="#000000" fill-opacity="1"><g transform="translate(324.612272, 259.147632)"><g><path d="M 25.46875 -38.40625 C 26.519531 -38.40625 27.304688 -37.863281 27.828125 -36.78125 L 41.4375 0 L 33.03125 0 L 23.015625 -27.046875 L 12.984375 0 L 4.546875 0 L 18.1875 -36.78125 C 18.707031 -37.863281 19.503906 -38.40625 20.578125 -38.40625 Z M 25.46875 -38.40625 "/></g></g></g></svg>